# xmcd
#
# Track frame offsets:
# 150
# 18422
# 35750
# 48201
# 64300
# 80458
# 97872
# 112911
# 128144
# 146012
# 160154
# 171653
# 191189
# 210127
# 224929
# 238787
# 252349
# 264156
# 280071
# 297252
#
# Disc length: 4127 seconds
#
#
# Revision: 1
# Processed by: cddbd v1.5.2PL0 Copyright (c) Steve Scherf et al.
# Submitted via: FreeRIP 2.951 
#
DISCID=2c101d14
DTITLE=Camilo Sesto - 20 exitos
DYEAR=1900
DGENRE=
TTITLE0=Algo de mi
TTITLE1=Ayudame
TTITLE2=Melina
TTITLE3=Vivir asi es morir de amor
TTITLE4=Quieres ser mi amante?
TTITLE5=Perdoname
TTITLE6=Piel de angel
TTITLE7=Que mas te da?
TTITLE8=Amor... amar
TTITLE9=Algo mas
TTITLE10=Fresa salvaje
TTITLE11=Si me dejas ahora
TTITLE12=Cellos
TTITLE13=Jamas
TTITLE14=Amor de mujer
TTITLE15=Con el viento a tu favor
TTITLE16=Mienteme
TTITLE17=Enamorate de mi
TTITLE18=Vivir sin ti
TTITLE19=Devuelveme mi libertad
EXTD=
EXTT0=
EXTT1=
EXTT2=
EXTT3=
EXTT4=
EXTT5=
EXTT6=
EXTT7=
EXTT8=
EXTT9=
EXTT10=
EXTT11=
EXTT12=
EXTT13=
EXTT14=
EXTT15=
EXTT16=
EXTT17=
EXTT18=
EXTT19=
PLAYORDER=
